<svg id="eLZVsq8uRzA1" xmlns="http://www.w3.org/2000/svg" xmlns:xlink="http://www.w3.org/1999/xlink" viewBox="0 0 61.364002 60" shape-rendering="geometricPrecision" text-rendering="geometricPrecision">
<style><![CDATA[
#eLZVsq8uRzA3_tr {animation: eLZVsq8uRzA3_tr__tr 1000ms linear infinite normal forwards}@keyframes eLZVsq8uRzA3_tr__tr { 0% {transform: translate(49.660726px,49.788504px) rotate(0deg)} 100% {transform: translate(49.660726px,49.788504px) rotate(359deg)}}
]]></style>
<g transform="matrix(.760948 0 0 0.760948-7.107234-7.886466)"><g id="eLZVsq8uRzA3_tr" transform="translate(49.660726,49.788504) rotate(0)"><g transform="scale(0.912114,0.912114) translate(-49.660726,-49.788504)"><path d="M89.141,35.617C86.25,22.852,77.844,14.405,68.699,10.364C80.07,20.382,90.545,39.769,77.513,57.433c-5.406,7.331-16.217,10.228-20.746,8.184c0,0,7.002-1.487,11.357-5.295c8.469-8.017,11.299-20.932,4.52-32.673-.947646-1.64362-2.073433-3.177869-3.357-4.575-.018-.021-.033-.042-.051-.062-4.764-5.683-11.307-9.075-18.337-10.116-9.127-1.715-20.896.515-29.71,8.666C11.58,30.45,8.468,41.953,9.542,51.895c2.989-14.858,14.542-33.622,36.355-31.171c9.053,1.019,16.965,8.932,17.461,13.877c0,0-5.277-8.281-18.365-8.281-.24.004-.747.024-.761.024l-.167.01c-8.51.333-16.783,4.784-21.83,13.526-.949906,1.642483-1.715864,3.384671-2.284,5.195l-.028.074c-2.539,6.968-2.205,14.33.407,20.938c3.079,8.763,10.896,17.841,22.361,21.397c12.502,3.878,24.02.82,32.092-5.079C60.42,87.242,38.394,86.621,29.61,66.506c-3.645-8.35-.749-19.159,3.287-22.061c0,0-4.534,8.71,2.012,20.044c4.482,7.484,12.617,12.658,22.949,12.658.498,0,4.488-.311,5.926-.633l.08-.011c7.303-1.286,13.512-5.256,17.928-10.822c6.05-7.046,10.003-18.356,7.349-30.064Z" fill="#fff"/></g></g></g></svg>
